<svg xmlns="http://www.w3.org/2000/svg" version="1.1" xmlns:xlink="http://www.w3.org/1999/xlink" xmlns:svgjs="http://svgjs.dev/svgjs" viewBox="0 0 1080 810" class="overflow-hidden rounded-md drop-shadow-lg transition duration-300 w-85screen rotate-90" style="overflow: hidden; height: 85vh;"><rect width="1080" height="810" fill="#9c8af9"/><g clip-path="url(&quot;#SvgjsClipPath3222&quot;)"><g transform="matrix(-1.14982484942985,-0.02007026740287567,0.02007026740287567,-1.14982484942985,1075.0356283504625,880.7912333272052)"><path d="M0,-810C2.7943961685161036,-736.0910153791594,18.44266346446789,-487.29153869605665,16.766377011096623,-366.5460922749568C15.090090557725354,-245.8006458538569,-2.9584428044270226,-187.62894640302522,-10.057718720227612,-85.52732147340072C-17.1569946360282,16.574303456223788,-15.483940454101017,147.31931514813232,-25.829278483706915,246.0636573027903C-36.17461651331281,344.80799945744826,-75.40610190473375,386.7747465185594,-72.129746897863,506.93873145454717C-68.85339189099226,627.1027163905349,-18.442583068273713,843.3470407930649,-6.171148442482462,967.0475669187167C6.100286183308787,1090.7480930443685,0.47033611647074736,1140.3164826949105,1.498860856884491,1249.1418882084577C2.5273855972982346,1357.9672937220048,0.24981014281408184,1558.1903147014095,0,1620L 1080 1620 L 1080 -810 Z" fill="url(&quot;#SvgjsLinearGradient3219&quot;)"/><path d="M360,-810C375.37453771058887,-740.6450549518971,464.9707316142068,-563.1926143486777,452.2472262635333,-393.87032971138296C439.52372091285986,-224.5480450740882,288.6032939579461,20.638214134479796,283.6589678959591,205.93370782376866C278.7146418339721,391.22920151305755,399.6050008531397,558.4357452037193,422.5812698916115,717.9026324243503C445.5575389300833,877.3695196449812,431.9467937753917,1012.3854698849462,421.5165821267898,1162.7350311475545C411.08637047818786,1313.0845924101627,370.2527636877983,1543.7891718579258,360,1620L 1080 1620 L 1080 -810 Z" fill="url(&quot;#SvgjsLinearGradient3220&quot;)"/><path d="M720,-810C731.4077096164227,-770.3701020398789,781.3682028000517,-667.8917781031336,788.4462576985362,-572.2206122392739C795.5243125970208,-476.54944637541433,758.5662775539197,-345.79484398394584,762.4683293909069,-235.97300481684232C766.3703812278941,-126.15116564973881,801.2776334439445,-11.374149734484135,811.8585687204594,86.71042276334714C822.4395039969743,184.79499526117843,831.6409846898262,258.2646295091131,825.9539410499964,352.53443017014524C820.2668974101666,446.8042308311774,807.4341236464937,552.5861872249516,777.7363068814811,652.3292267295401C748.0384901164686,752.0722662341286,671.4214114803685,839.4235337127303,647.7670404599207,950.9926671976767C624.1126694394729,1062.561800682623,623.7712541687812,1210.2428055054977,635.8100807587944,1321.7440276392183C647.8489073488075,1433.245249772939,705.9683467931324,1570.290671273203,720,1620L 1080 1620 L 1080 -810 Z" fill="url(&quot;#SvgjsLinearGradient3221&quot;)"/></g></g><defs><linearGradient x1="0.1" y1="0" x2="0" y2="1" id="SvgjsLinearGradient3219"><stop stop-color="#9c8af9" offset="0"/><stop stop-color="#8a8af9" offset="0"/></linearGradient><linearGradient x1="0.1" y1="0" x2="0" y2="1" id="SvgjsLinearGradient3220"><stop stop-color="#d1c9fc" offset="0"/><stop stop-color="#c9c9fc" offset="0.3333333333333333"/></linearGradient><linearGradient x1="0.1" y1="0" x2="0" y2="1" id="SvgjsLinearGradient3221"><stop stop-color="#ffffff" offset="0"/><stop stop-color="#ffffff" offset="0.6666666666666666"/></linearGradient><clipPath id="SvgjsClipPath3222"><rect width="1080" height="810"/></clipPath></defs></svg>